Coordinates
version=1
nRows=8
nColumns=36
inDegrees=yes

Units are S.I. units (second, meters, Newtons, ...)
If the header above contains a line with 'inDegrees', this indicates whether rotational values are in degrees (yes) or radians (no).

endheader
time	pelvis_tilt	pelvis_list	pelvis_rotation	pelvis_tx	pelvis_ty	pelvis_tz	hip_flexion_r	hip_adduction_r	hip_rotation_r	knee_angle_r	knee_angle_r_beta	ankle_angle_r	subtalar_angle_r	mtp_angle_r	hip_flexion_l	hip_adduction_l	hip_rotation_l	knee_angle_l	knee_angle_l_beta	ankle_angle_l	subtalar_angle_l	mtp_angle_l	lumbar_extension	lumbar_bending	lumbar_rotation	arm_flex_r	arm_add_r	arm_rot_r	elbow_flex_r	pro_sup_r	arm_flex_l	arm_add_l	arm_rot_l	elbow_flex_l	pro_sup_l
      0.00000000	      0.15143029	     -0.20961479	      2.14240511	      0.33165435	      0.94470973	     -0.08535425	     -0.60245126	     -3.78649123	      1.24642288	      8.17797185	      0.14273253	      1.03555696	    -17.97705212	     -4.36177996	     -0.40357014	     -2.98474124	      1.10721796	      7.78757082	      0.13591875	      2.10651327	    -14.62799504	     -4.36177996	    -11.66239158	      1.43044320	     -0.38219539	     16.39562984	    -17.62197188	      5.28541571	     32.48228780	     82.85926150	     15.47310742	     -4.98966823	     13.66288653	     34.40005357	     75.24567387
      0.01694910	     -0.95814737	     -0.47129000	      2.12349691	      0.33270082	      0.94439153	     -0.08576874	      0.49243396	     -3.36394667	      2.16016467	      8.21849347	      0.14343977	      3.99366206	    -15.40595110	     -4.83239193	      1.14021051	     -2.83337801	      1.75967122	      7.70510531	      0.13447946	      2.32835243	    -14.25654433	     -4.83239193	     -9.77445224	      1.91618191	     -0.93082784	     16.61021446	    -17.76166834	      2.93466182	     33.19079338	     80.23428298	     15.88564090	     -3.92220046	     11.64764425	     33.33471526	     73.97661010
      0.03389830	     -1.13352509	     -0.04423180	      1.56560459	      0.33237581	      0.94387654	     -0.08487570	      0.48099616	     -3.99925047	      1.96348348	      7.72550550	      0.13483551	      4.35038154	    -15.22868775	     -4.95495724	      1.09039702	     -2.36355865	      1.62896732	      7.41082730	      0.12934334	      2.40237778	    -13.85945627	     -4.95495724	    -10.01360051	      1.31428170	     -0.77455838	     17.40246158	    -17.58921561	      1.97592411	     33.43984794	     79.13499384	     16.70933096	     -4.12967467	     11.24187512	     33.32763317	     73.37672965
      0.05084750	     -0.40865493	      0.27054109	      1.31821955	      0.33178263	      0.94533031	     -0.08436611	     -0.40940216	     -4.47445969	      1.53507231	      7.36319213	      0.12851195	      4.99200855	    -14.19134406	     -6.27647094	     -0.20098736	     -1.98344626	      1.64979984	      6.53811121	      0.11411157	      2.22614034	    -13.91084199	     -6.27647094	    -11.22210576	      0.81542764	     -0.36707028	     17.53188752	    -17.25868883	     -0.11297876	     34.19939856	     76.34659641	     18.29318993	     -4.27920580	     12.11001220	     33.05504449	     72.47680996
      0.06779660	      0.21590633	      0.43508439	      1.18374184	      0.33140440	      0.94909607	     -0.08371967	     -1.17223337	     -4.62853139	      1.51090914	      7.06111785	      0.12323976	      5.03060080	    -14.20268154	     -6.52068926	     -1.12552922	     -1.77446515	      2.03717260	      6.00609011	      0.10482605	      1.75916025	    -14.79770533	     -6.52068926	    -12.37433510	      0.67972182	     -0.45190028	     17.84551395	    -16.99947763	     -1.86836981	     35.13142624	     75.10083123	     19.47996640	     -4.33323040	      9.76115091	     33.22706241	     71.48543210
      0.08474580	      0.94322470	      0.54337985	      1.07124041	      0.33085441	      0.94690631	     -0.08322383	     -2.05610153	     -4.76039395	      1.21106339	      6.76827125	      0.11812862	      5.17111142	    -14.15402690	     -6.66901005	     -1.97063926	     -1.65044495	      2.12475492	      5.80687789	      0.10134914	      1.81091644	    -14.86301538	     -6.66901005	    -13.53616536	      0.58804676	     -0.51271403	     18.23258040	    -16.81599531	     -2.38661555	     35.86100723	     73.38789172	     20.60732707	     -4.52526636	      8.50268446	     33.38056539	     70.06403126
      0.10169490	      1.41022487	      0.61525349	      0.97216324	      0.33049311	      0.94508200	     -0.08248196	     -2.55577950	     -4.81249209	      1.01891399	      6.62705053	      0.11566385	      5.48808568	    -13.75517637	     -6.87872319	     -2.47911371	     -1.63345136	      2.33386427	      5.85744094	      0.10223163	      1.83935957	    -15.15464122	     -6.87872319	    -14.26497829	      0.48725069	     -0.51860216	     18.66534506	    -16.67424113	     -2.85663987	     36.47038160	     71.28819891	     21.51186529	     -4.52512692	      7.27749579	     33.44628601	     68.40029084
      0.11864410	      1.66902368	      0.68476688	      0.85252742	      0.32998841	      0.94572153	     -0.08228521	     -2.83785916	     -4.87811564	      1.03046326	      6.55024533	      0.11432335	      5.43318862	    -14.03442590	     -6.89698928	     -2.72284376	     -1.58337848	      2.70232431	      5.94990704	      0.10384547	      1.55540029	    -15.81181387	     -6.89698928	    -14.66990904	      0.37293438	     -0.43736292	     19.19246034	    -16.46117485	     -2.76694914	     36.48179624	     71.37198839	     22.35395819	     -4.67896381	      6.86535525	     33.02950541	     68.43272579
